<svg width="25" height="25" viewBox="0 0 25 25" fill="none" xmlns="http://www.w3.org/2000/svg">
<rect width="25" height="25" rx="4" fill="#383838"/>
<path d="M13.9688 10.0469C13.9062 9.21875 13.2969 8.73438 12.2031 8.73438C11.125 8.73438 10.5781 9.20312 10.5625 9.84375C10.5469 10.5469 11.2344 10.8906 12.25 11.1094L13.2344 11.3438C15.4062 11.8281 16.6719 12.9062 16.6875 14.7188C16.6719 16.8594 15.0156 18.1562 12.2031 18.1562C9.39062 18.1562 7.5625 16.875 7.51562 14.2812H10.0781C10.1406 15.375 10.9531 15.9375 12.1719 15.9375C13.2969 15.9375 13.9688 15.4375 13.9844 14.7188C13.9688 14.0625 13.3906 13.7188 12.1406 13.4375L10.9531 13.1562C9 12.7031 7.8125 11.7344 7.8125 10.0312C7.79688 7.9375 9.65625 6.53125 12.2188 6.53125C14.8281 6.53125 16.5 7.95312 16.5312 10.0469H13.9688Z" fill="black"/>
</svg>
