<svg width="33" height="33" viewBox="0 0 33 33" fill="none" xmlns="http://www.w3.org/2000/svg">
<path d="M8.25 31.625C7.49375 31.625 6.84635 31.3557 6.30781 30.8172C5.76927 30.2786 5.5 29.6313 5.5 28.875V4.125C5.5 3.36875 5.76927 2.72135 6.30781 2.18281C6.84635 1.64427 7.49375 1.375 8.25 1.375H22C22.7563 1.375 23.4036 1.64427 23.9422 2.18281C24.4807 2.72135 24.75 3.36875 24.75 4.125V9.625H22V8.25H8.25V24.75H22V23.375H24.75V28.875C24.75 29.6313 24.4807 30.2786 23.9422 30.8172C23.4036 31.3557 22.7563 31.625 22 31.625H8.25ZM8.25 27.5V28.875H22V27.5H8.25ZM20.5562 22L14.7125 16.1562L16.6375 14.2313L20.5562 18.15L28.325 10.3813L30.25 12.3063L20.5562 22ZM8.25 5.5H22V4.125H8.25V5.5Z" fill="#5382F7"/>
</svg>
