<svg width="37" height="37" viewBox="0 0 37 37" fill="none" xmlns="http://www.w3.org/2000/svg">
<path d="M4.625 13.875L18.5 3.08333L32.375 13.875V30.8333C32.375 31.6511 32.0501 32.4353 31.4719 33.0136C30.8937 33.5918 30.1094 33.9167 29.2917 33.9167H7.70833C6.89058 33.9167 6.10632 33.5918 5.52809 33.0136C4.94985 32.4353 4.625 31.6511 4.625 30.8333V13.875Z" fill="#5382F7"/>
<path d="M13.875 33.9167V18.5H23.125V33.9167" fill="#5382F7"/>
<path d="M13.875 33.9167V18.5H23.125V33.9167M4.625 13.875L18.5 3.08333L32.375 13.875V30.8333C32.375 31.6511 32.0501 32.4353 31.4719 33.0136C30.8937 33.5918 30.1094 33.9167 29.2917 33.9167H7.70833C6.89058 33.9167 6.10632 33.5918 5.52809 33.0136C4.94985 32.4353 4.625 31.6511 4.625 30.8333V13.875Z" stroke="black" stroke-width="2" stroke-linecap="round" stroke-linejoin="round"/>
</svg>
